<svg xmlns="http://www.w3.org/2000/svg" width="640" height="640" viewBox="0 0 640 640" role="img" aria-label="QR placeholder">
  <rect width="640" height="640" rx="32" fill="#ffffff"/>
  <rect x="24" y="24" width="592" height="592" rx="24" fill="#111827" opacity="0.08"/>
  <g fill="#111827" opacity="0.9">
    <rect x="64" y="64" width="140" height="140" rx="12"/>
    <rect x="436" y="64" width="140" height="140" rx="12"/>
    <rect x="64" y="436" width="140" height="140" rx="12"/>
  </g>
  <g fill="#111827" opacity="0.25">
    <rect x="244" y="92" width="60" height="60" rx="10"/>
    <rect x="320" y="168" width="60" height="60" rx="10"/>
    <rect x="244" y="244" width="60" height="60" rx="10"/>
    <rect x="340" y="280" width="44" height="44" rx="10"/>
    <rect x="276" y="332" width="60" height="60" rx="10"/>
    <rect x="376" y="380" width="60" height="60" rx="10"/>
    <rect x="244" y="420" width="44" height="44" rx="10"/>
  </g>
  <g fill="#111827" font-family="system-ui, -apple-system, Segoe UI, Roboto, sans-serif" text-anchor="middle">
    <text x="320" y="612" font-size="22" opacity="0.7">qr.svg (placeholder)</text>
  </g>
</svg>
